<?xml version="1.0" encoding="iso-8859-1"?>
<!-- Generator: Adobe Illustrator 16.0.0, SVG Export Plug-In . SVG Version: 6.00 Build 0)  -->
<!DOCTYPE svg PUBLIC "-//W3C//DTD SVG 1.1//EN" "http://www.w3.org/Graphics/SVG/1.1/DTD/svg11.dtd">
<svg version="1.1" id="Capa_1" xmlns="http://www.w3.org/2000/svg" xmlns:xlink="http://www.w3.org/1999/xlink" x="0px" y="0px"
	 width="357.387px" height="357.388px" viewBox="0 0 357.387 357.388" style="enable-background:new 0 0 357.387 357.388;"
	 xml:space="preserve">
<g>
	<g>
		<g>
			<path d="M0,302.653h56.361V190.893H0V302.653z M11.241,202.133H45.12v89.279H11.241V202.133z"/>
		</g>
		<g>
			<path d="M355.844,259.947c-2.029-4.323-21.689-43.847-44.79-39.752c-6.389,1.189-11.932,7.014-19.605,15.084
				c-13.103,13.764-31.068,32.643-59.699,32.643c-17.45,0-37.194-7.086-58.799-21.119l44.826-0.018c0,0,0.45,0.036,1.195,0.036
				c11.745,0,19.341-6.39,19.341-16.273v-18.597l-0.113-1.111c-1.321-6.581-7.206-19.035-20.044-19.035H66.422v107.559l3.927,1.236
				c4.065,1.279,99.92,31.213,134.967,31.213l0,0c0,0,1.021,0.043,2.895,0.043c15.108,0,93.086-3.165,146.805-65.879l2.372-2.756
				L355.844,259.947z"/>
		</g>
		<g>
			<g>
				<path d="M146.541,145.965c0,2.603,2.123,4.71,4.723,4.71h169.752c2.595,0,4.72-2.108,4.72-4.71V68.926H146.541V145.965z
					 M249.757,109.485h56.596v15.09h-56.596V109.485z"/>
			</g>
			<g>
				<path d="M321.016,25.532H151.264c-2.594,0-4.723,2.104-4.723,4.723v21.687h179.195V30.255
					C325.736,27.643,323.611,25.532,321.016,25.532z"/>
			</g>
		</g>
	</g>
</g>
<g>
</g>
<g>
</g>
<g>
</g>
<g>
</g>
<g>
</g>
<g>
</g>
<g>
</g>
<g>
</g>
<g>
</g>
<g>
</g>
<g>
</g>
<g>
</g>
<g>
</g>
<g>
</g>
<g>
</g>
</svg>
